<?xml version="1.0" encoding="utf-8"?>
<!-- Generator: Adobe Illustrator 17.0.0, SVG Export Plug-In . SVG Version: 6.00 Build 0)  -->
<!DOCTYPE svg PUBLIC "-//W3C//DTD SVG 1.1//EN" "http://www.w3.org/Graphics/SVG/1.1/DTD/svg11.dtd">
<svg version="1.1" id="Layer_2" xmlns="http://www.w3.org/2000/svg" xmlns:xlink="http://www.w3.org/1999/xlink" x="0px" y="0px"
	 width="462px" height="399px" viewBox="0 0 462 399" enable-background="new 0 0 462 399" xml:space="preserve">
<g>
	<path d="M438.641,60.629l-3.819,1.465l-3.783,1.551c-2.507,1.07-4.994,2.185-7.455,3.355c-2.457,1.179-4.889,2.406-7.297,3.681
		c-2.403,1.283-4.781,2.611-7.135,3.981c-4.704,2.746-9.301,5.671-13.816,8.717c-4.514,3.047-8.956,6.202-13.346,9.429
		c-2.21,1.555-4.151,3.418-6.124,5.299l-5.831,5.728c-3.889,3.829-7.831,7.63-12.058,11.142c-2.118,1.749-4.305,3.43-6.628,4.942
		c-2.326,1.5-4.785,2.864-7.495,3.753c-1.356,0.434-2.78,0.736-4.25,0.795c-1.467,0.064-2.986-0.182-4.387-0.747
		c-1.393-0.588-2.632-1.497-3.644-2.57c-1.014-1.076-1.811-2.301-2.481-3.565c-0.255-0.481-0.072-1.078,0.41-1.333
		c0.144-0.076,0.299-0.113,0.451-0.115l0.014,0c2.215-0.014,4.221,0.881,5.903,1.974c1.697,1.11,3.16,2.453,4.522,3.854
		c2.725,2.796,4.995,5.964,7.387,8.816c1.231,1.475,2.477,2.859,3.752,4.254l3.883,4.199c2.587,2.824,5.147,5.749,7.35,8.984
		c1.09,1.587,2.162,3.217,3.102,4.981c0.917,1.764,1.767,3.716,1.91,5.956c0.183,2.242-0.65,4.552-1.903,6.254
		c-1.238,1.731-2.799,3.124-4.334,4.299c-3.222,2.508-7.053,4.157-11.006,4.882c-3.957,0.74-7.868,0.738-11.74,0.621
		c-1.885-0.056-3.844-0.197-5.791-0.372l-2.893-0.33l-2.882-0.438c-3.833-0.656-7.62-1.612-11.307-2.857
		c-7.389-2.485-14.289-6.211-20.669-10.545c-3.141-2.181-6.356-4.213-9.407-6.777c-1.51-1.282-2.956-2.703-4.193-4.343
		c-1.237-1.635-2.249-3.507-2.851-5.522c-0.618-2.039-0.743-4.07-0.878-5.979c-0.126-1.912-0.221-3.772-0.567-5.481
		c-0.335-1.712-0.978-3.213-2.077-4.163c-1.095-0.958-2.693-1.405-4.404-1.526l1.54-1.919c1.28,4.357,2.883,8.62,4.839,12.703
		c0.979,2.041,2.047,4.036,3.215,5.965c0.58,0.967,1.188,1.917,1.827,2.842c0.63,0.932,1.293,1.841,1.984,2.724
		c0.819,1.085,1.014,1.295,1.899,1.584c0.825,0.246,1.891,0.288,3.016,0.297c1.135,0.017,2.347-0.024,3.709,0.213
		c0.677,0.124,1.412,0.33,2.122,0.755c0.709,0.414,1.341,1.067,1.732,1.779c0.111,0.177,0.182,0.357,0.263,0.537l0.059,0.136
		l0.015,0.034l0.007,0.017l0.051,0.155l0.014,0.052c0.021,0.084,0.033,0.106,0.061,0.242c0.033,0.18,0.053,0.366,0.061,0.55
		c0.003,0.165-0.012,0.268-0.022,0.405c-0.024,0.259-0.082,0.473-0.14,0.688c-0.258,0.818-0.63,1.409-1.004,1.959
		c-0.761,1.079-1.597,1.959-2.445,2.813c-0.851,0.846-1.723,1.641-2.594,2.418c-0.856,0.768-1.78,1.548-2.501,2.255l-0.005-2.115
		l1.794,1.717l1.867,1.667l3.865,3.293l1.944,1.694l1.909,1.768l1.843,1.865l1.747,1.973c0.536,0.605,0.48,1.53-0.126,2.066
		c-0.098,0.087-0.204,0.158-0.316,0.214l-0.038,0.019l-11.239,5.547c-1.86,0.929-3.703,1.877-5.526,2.85l-2.708,1.498l-2.656,1.57
		l-2.592,1.657c-0.838,0.587-1.695,1.149-2.517,1.755c-0.809,0.623-1.647,1.211-2.433,1.86c-0.778,0.66-1.592,1.278-2.341,1.97
		c-0.744,0.696-1.528,1.351-2.242,2.08c-0.71,0.731-1.457,1.428-2.139,2.187c-0.677,0.764-1.377,1.507-2.035,2.287l-1.934,2.378
		l-0.368-2.174c2.153,1.365,4.867,2.124,7.585,2.57c2.738,0.441,5.556,0.571,8.358,0.452c2.802-0.117,5.602-0.472,8.304-1.129
		c2.688-0.658,5.335-1.603,7.5-3.063c0.536-0.361,1.009-0.757,1.587-1.249c0.507-0.446,1.026-0.907,1.503-1.389
		c0.482-0.476,0.935-0.968,1.311-1.466c0.373-0.49,0.696-1.014,0.807-1.409c0.072-0.204,0.061-0.336,0.054-0.42
		c-0.014-0.082-0.031-0.132-0.113-0.238c-0.165-0.213-0.644-0.507-1.197-0.714c-1.135-0.427-2.517-0.674-3.895-0.868
		c-2.784-0.383-5.679-0.551-8.615-0.91c-1.472-0.185-2.957-0.398-4.489-0.816c-0.766-0.217-1.547-0.474-2.349-0.913
		c-0.399-0.219-0.807-0.5-1.194-0.865c-0.194-0.188-0.378-0.398-0.546-0.641l-0.083-0.119l-0.036-0.058l-0.071-0.116l-0.142-0.231
		c-1.635-2.596-2.723-5.454-3.659-8.229c-0.935-2.788-1.735-5.54-2.784-8.133c-0.258-0.65-0.543-1.281-0.831-1.911
		c-0.05-0.101-0.161-0.333-0.221-0.437c-0.065-0.121-0.135-0.246-0.215-0.374c-0.155-0.249-0.318-0.479-0.485-0.67
		c-0.343-0.39-0.661-0.565-0.92-0.601c-0.262-0.043-0.656,0.041-1.119,0.308c-0.929,0.533-1.875,1.534-2.709,2.586
		c-0.845,1.066-1.623,2.233-2.377,3.434l-2.288,3.686c-0.757,1.222-1.537,2.491-2.42,3.724c-0.881,1.235-1.876,2.43-3.011,3.511
		c-0.306,0.281-0.6,0.564-1.115,0.882c-0.278,0.143-0.654,0.388-1.39,0.358c-0.357-0.026-0.737-0.177-0.961-0.338
		c-0.252-0.168-0.381-0.315-0.498-0.442c-0.399-0.485-0.51-0.711-0.692-0.926c-0.165-0.206-0.323-0.366-0.507-0.505
		c-0.371-0.299-0.763-0.408-1.613-0.745c-0.748-0.308-1.484-0.703-2.127-1.097c-0.292-0.184-0.653-0.376-0.607-0.347
		c0.021,0.024,0.326,0.04,0.466-0.036c0.138-0.065,0.104-0.066,0.054-0.011c-0.275,0.286-0.705,0.937-1.072,1.511l-0.286,0.45
		l-0.114,0.18l-0.136,0.235c-0.109,0.178-0.126,0.252-0.19,0.373l-0.174,0.405c-0.224,0.576-0.406,1.223-0.58,1.902
		c-0.358,1.36-0.643,2.862-1.374,4.424c-0.348,0.743-1.232,1.063-1.975,0.715c-0.058-0.027-0.113-0.057-0.166-0.091l-0.021-0.014
		c-1.065-0.683-2.193-1.206-3.295-1.399c-0.55-0.098-1.089-0.109-1.605-0.029c-0.517,0.079-1.014,0.25-1.491,0.506l0.55-2.126
		c0.762,1.207,1.333,2.497,1.715,3.867c0.189,0.687,0.329,1.394,0.39,2.142c0.05,0.752,0.06,1.534-0.202,2.436
		c-0.128,0.442-0.361,0.948-0.773,1.407c-0.404,0.461-1.067,0.833-1.677,0.911c-1.228,0.155-2.057-0.243-2.752-0.58
		c-1.375-0.726-2.376-1.705-3.3-2.487c-1.817-1.532-3.826-2.875-5.905-3.285c-1.037-0.211-2.086-0.193-3.122,0.052
		c-1.045,0.236-1.995,0.719-3.2,1.304c-2.314,1.108-4.592,2.13-6.733,3.317c-2.132,1.186-4.133,2.533-5.705,4.222
		c-0.289,0.334-0.599,0.774-0.78,1.175c-0.19,0.41-0.288,0.816-0.298,1.233c-0.031,0.827,0.357,1.764,0.963,2.674
		c1.241,1.836,3.139,3.481,5.006,5.168c1.887,1.701,3.718,3.333,5.705,4.67c1.972,1.34,4.103,2.28,6.334,2.567
		c0.557,0.076,1.119,0.097,1.684,0.1c0.566-0.034,1.165-0.032,1.562-0.138c0.932-0.235,2.025-0.77,2.964-1.376
		c0.942-0.61,1.848-1.362,2.377-2.123c0.259-0.37,0.383-0.734,0.36-0.856c-0.007-0.106-0.025-0.206-0.325-0.453
		c-0.086-0.052-0.15-0.112-0.247-0.165l-0.262-0.144l-0.865-0.39c-0.555-0.219-1.014-0.402-1.583-0.553
		c-1.089-0.31-2.202-0.471-3.292-0.438c-2.174,0.053-4.259,0.935-5.628,2.538c-1.406,1.57-2.034,3.773-1.879,5.953
		c0.144,2.197,1.055,4.358,2.37,6.259c0.473,0.683,0.302,1.62-0.381,2.093c-0.265,0.184-0.569,0.27-0.868,0.267l-0.026,0
		l-3.763-0.03l-3.758,0.14c-1.25,0.081-2.497,0.213-3.745,0.316c-1.245,0.137-2.483,0.333-3.724,0.496
		c-1.236,0.199-2.463,0.454-3.695,0.677c-1.224,0.265-2.438,0.573-3.658,0.857l-3.614,1.033l-3.563,1.205l-3.507,1.369l-3.448,1.519
		c-1.129,0.554-2.267,1.088-3.388,1.659c-1.108,0.597-2.227,1.173-3.327,1.786l-3.268,1.902l-3.21,2.007l-3.155,2.1l-3.103,2.183
		l-0.846-2.716c2.182,0.034,4.426-0.012,6.643-0.083c2.223-0.074,4.446-0.185,6.663-0.34c4.432-0.312,8.856-0.772,13.185-1.561
		c2.162-0.395,4.3-0.883,6.349-1.53c2.026-0.65,4.046-1.483,5.469-2.673c1.458-1.237,1.649-2.48,0.735-4.133
		c-0.455-0.795-1.108-1.574-1.835-2.304l-0.567-0.538l-0.142-0.135l-0.13-0.112l-0.319-0.274c-0.423-0.357-0.855-0.755-1.266-1.055
		c-1.639-1.302-3.483-2.497-5.38-3.521c-1.907-1.034-3.905-1.931-5.949-2.773c-2.045-0.842-4.136-1.63-6.235-2.454
		c-1.049-0.411-2.102-0.83-3.15-1.27l-0.786-0.331l-0.43-0.187l-0.381-0.177c-0.488-0.212-1.055-0.519-1.612-0.826
		c-1.064-0.628-2.089-1.364-2.994-2.311c-0.9-0.94-1.66-2.116-2.069-3.439c-0.424-1.319-0.456-2.735-0.221-4.025
		c0.23-1.299,0.694-2.494,1.263-3.591c1.155-2.19,2.692-4.039,4.365-5.685c1.674-1.651,3.503-3.101,5.417-4.414l0.015-0.01
		c0.683-0.468,1.616-0.295,2.084,0.388c0.44,0.641,0.308,1.508-0.275,1.998l-2.92,2.439l-2.987,2.35l-3.045,2.267l-3.096,2.191
		l-3.138,2.122l-3.174,2.061c-2.131,1.349-4.274,2.672-6.431,3.97l0.174-2.451l7.789,6.305c1.295,1.065,2.583,2.145,3.862,3.239
		c1.275,1.1,2.535,2.221,3.78,3.365c1.238,1.152,2.453,2.332,3.646,3.539l1.754,1.849l1.697,1.908l1.632,1.97l1.559,2.033
		l1.477,2.097l1.389,2.161c0.443,0.689,0.243,1.605-0.445,2.048c-0.256,0.165-0.544,0.24-0.827,0.235l-0.032-0.001
		c-10.364-0.172-20.78-0.978-31.016-2.997c-5.115-1.006-10.178-2.31-15.139-3.934l-3.699-1.281
		c-1.218-0.467-2.445-0.911-3.656-1.397l-7.159-2.997c-9.462-3.939-19.107-7.488-29.056-9.65
		c-4.971-1.072-10.009-1.794-15.067-2.048l-1.897-0.09l-1.897-0.013c-0.627,0.003-1.277-0.025-1.885,0.002
		c-0.65,0.015-1.288,0.038-1.896,0.079c-2.488,0.142-4.997,0.457-7.437,0.968c-4.858,1.009-9.676,2.781-13.202,5.965
		c-3.602,3.31-6.172,7.65-8.13,12.27c-1.954,4.622-3.442,9.589-4.996,14.465c-1.466,4.839-2.512,9.799-2.519,14.758
		c-0.016,2.477,0.257,4.943,0.77,7.36c0.062,0.281,0.134,0.653,0.188,0.858c0.086,0.3,0.171,0.655,0.26,0.866
		c0.149,0.471,0.413,1.024,0.668,1.515c0.538,1.002,1.249,1.935,2.052,2.802c1.617,1.736,3.635,3.175,5.767,4.43
		c2.141,1.253,4.427,2.31,6.766,3.262c9.502,3.667,19.449,6.461,29.23,9.895c2.455,0.848,4.873,1.752,7.321,2.692
		c2.469,0.997,4.793,2.13,7.126,3.215c4.646,2.166,9.305,4.296,14.114,5.44c2.389,0.549,4.831,0.833,7.082,0.461
		c1.12-0.182,2.164-0.545,3.186-1.108c0.921-0.507,1.835-1.234,2.561-2.072c1.485-1.691,2.414-3.913,2.935-6.254
		c0.527-2.349,0.649-4.831,0.556-7.302c-0.098-2.476-0.446-4.959-0.989-7.387c-0.273-1.213-0.599-2.414-0.987-3.58
		c-0.123-0.391-0.196-0.589-0.301-0.999c-0.106-0.395-0.174-0.769-0.231-1.15c-0.105-0.768-0.109-1.589,0.052-2.409
		c0.301-1.662,1.364-3.157,2.596-4.075c1.233-0.951,2.582-1.525,3.914-1.957c2.679-0.83,5.364-1.113,8.021-1.227
		c2.659-0.101,5.3,0.003,7.928,0.257c1.315,0.128,2.626,0.296,3.94,0.52c0.658,0.113,1.316,0.238,1.984,0.394
		c0.658,0.149,1.397,0.364,2.019,0.595c2.528,0.929,4.91,2.024,7.253,3.348c1.165,0.671,2.313,1.397,3.414,2.293
		c0.549,0.45,1.088,0.947,1.591,1.549c0.49,0.607,0.997,1.332,1.205,2.378c0.099,0.515,0.088,1.111-0.079,1.653
		c-0.078,0.271-0.19,0.527-0.321,0.755c-0.073,0.135-0.119,0.201-0.158,0.264l-0.128,0.205c-0.386,0.608-0.767,1.148-1.179,1.697
		c-0.818,1.086-1.704,2.109-2.658,3.076c-1.917,1.911-4.07,3.688-6.822,4.763c-0.69,0.259-1.424,0.461-2.197,0.564
		c-0.747,0.09-1.312,0.132-1.977,0.2l-3.861,0.362c-2.581,0.23-5.177,0.426-7.789,0.53c-5.215,0.208-10.535,0.063-15.765-1.061
		c-2.599-0.528-5.22-1.451-7.582-2.347l-1.815-0.667l-1.82-0.745c-1.205-0.51-2.445-0.964-3.62-1.522
		c-9.556-4.201-18.543-9.568-27.041-15.52c-8.501-6.005-16.376-12.621-25.431-17.152l2.144-1.678c0.4,1.772,1.352,3.457,2.571,4.996
		c1.225,1.541,2.71,2.941,4.286,4.261c3.151,2.655,6.733,4.927,10.086,7.68l19.727,16.01c1.638,1.333,3.323,2.654,4.895,4.201
		c1.558,1.513,3,3.132,4.344,4.819c2.688,3.378,4.986,7.018,7.051,10.758c4.13,7.493,7.33,15.387,10.594,23.188
		c0.813,1.927,1.703,3.928,2.211,6.072c0.529,2.111,0.821,4.27,0.901,6.435c0.142,4.313-0.499,8.74-2.49,12.671
		c-1.006,1.928-2.191,3.71-3.482,5.432c-1.302,1.71-2.744,3.329-4.4,4.735c-1.651,1.398-3.538,2.598-5.664,3.237
		c-1.059,0.316-2.172,0.489-3.285,0.461c-1.099-0.012-2.244-0.273-3.233-0.567c-4.135-1.136-8.06-2.94-11.668-5.212
		c-3.614-2.271-6.915-4.99-9.98-7.928c-6.136-5.892-11.349-12.602-16.727-19.134c-0.019-0.023-0.017-0.057,0.006-0.076
		c0.013-0.011,0.03-0.015,0.046-0.012l6.49,1.303l-6.51-1.197l0.052-0.088c5.485,6.444,10.81,13.067,17.005,18.821
		c3.093,2.869,6.408,5.507,10.005,7.685c3.591,2.181,7.473,3.88,11.521,4.937c1.043,0.291,1.985,0.487,3.009,0.492
		c1.006,0.012,2.009-0.159,2.972-0.461c1.933-0.609,3.687-1.749,5.239-3.101c3.088-2.74,5.542-6.252,7.458-9.907
		c1.802-3.674,2.373-7.914,2.176-12.029c-0.105-2.065-0.413-4.121-0.941-6.11c-0.496-1.981-1.357-3.858-2.216-5.815
		c-3.377-7.769-6.668-15.562-10.825-22.858c-2.077-3.641-4.368-7.155-7.001-10.37c-1.316-1.606-2.718-3.135-4.218-4.552
		c-1.467-1.407-3.134-2.685-4.799-4l-19.948-15.735c-3.227-2.584-6.855-4.814-10.229-7.568c-1.686-1.374-3.327-2.865-4.765-4.62
		c-1.431-1.745-2.663-3.817-3.206-6.192c-0.185-0.81,0.321-1.616,1.131-1.802c0.353-0.081,0.706-0.03,1.006,0.12l0.006,0.003
		c4.712,2.356,9.137,5.202,13.354,8.236c4.221,3.03,8.284,6.213,12.45,9.153c8.385,5.872,17.196,11.129,26.53,15.232
		c1.155,0.548,2.34,0.979,3.508,1.475l1.759,0.721l1.815,0.667c2.458,0.929,4.714,1.722,7.174,2.229
		c4.868,1.049,9.946,1.202,15.019,0.997c2.54-0.101,5.087-0.293,7.642-0.521l3.839-0.36l1.87-0.188
		c0.505-0.067,1.023-0.206,1.539-0.399c2.076-0.797,4.034-2.34,5.742-4.062c0.857-0.868,1.662-1.798,2.395-2.772
		c0.363-0.481,0.723-0.997,1.028-1.477l0.128-0.205c0.046-0.074,0.09-0.142,0.09-0.151c0.03-0.051,0.047-0.093,0.058-0.132
		c0.024-0.075,0.027-0.142,0.007-0.259c-0.033-0.23-0.244-0.631-0.567-1.013c-0.323-0.387-0.732-0.775-1.18-1.14
		c-0.899-0.734-1.934-1.397-3.002-2.01c-2.144-1.215-4.464-2.28-6.775-3.127c-0.588-0.215-1.09-0.36-1.688-0.498
		c-0.588-0.137-1.197-0.254-1.809-0.359c-1.227-0.209-2.474-0.37-3.725-0.491c-2.503-0.242-5.027-0.34-7.52-0.245
		c-2.485,0.102-4.975,0.386-7.228,1.088c-2.243,0.693-4.195,1.967-4.475,3.744c-0.088,0.446-0.094,0.932-0.024,1.44
		c0.039,0.256,0.087,0.517,0.148,0.745c0.048,0.216,0.186,0.628,0.256,0.852c0.426,1.28,0.775,2.571,1.068,3.872
		c0.581,2.603,0.952,5.246,1.06,7.923c0.1,2.674-0.025,5.388-0.625,8.077c-0.598,2.67-1.679,5.375-3.607,7.58
		c-0.969,1.102-2.089,2.02-3.426,2.753c-1.234,0.681-2.656,1.181-4.082,1.409c-2.857,0.464-5.637,0.098-8.255-0.497
		c-5.245-1.254-10.021-3.468-14.707-5.645c-2.34-1.09-4.656-2.215-6.97-3.148c-2.365-0.907-4.776-1.81-7.195-2.645
		c-9.676-3.401-19.62-6.185-29.366-9.946c-2.435-0.991-4.844-2.101-7.154-3.453c-2.301-1.358-4.538-2.932-6.446-4.973
		c-0.947-1.021-1.816-2.153-2.499-3.424c-0.337-0.653-0.637-1.265-0.884-2.022c-0.145-0.391-0.204-0.666-0.296-0.985
		c-0.109-0.418-0.151-0.681-0.23-1.029c-0.558-2.624-0.854-5.313-0.836-7.993c0.011-5.377,1.132-10.616,2.65-15.63
		c1.577-4.943,3.045-9.877,5.104-14.762c2.051-4.841,4.833-9.602,8.857-13.301c4.201-3.768,9.459-5.605,14.626-6.697
		c2.608-0.544,5.228-0.874,7.887-1.026c0.678-0.044,1.329-0.068,1.967-0.082c0.68-0.029,1.32-0.001,1.981-0.004l1.97,0.014
		l1.966,0.092c5.242,0.263,10.444,1.01,15.552,2.112c10.225,2.224,20.022,5.837,29.583,9.816l7.109,2.976
		c1.182,0.474,2.379,0.907,3.568,1.363l3.609,1.251c4.841,1.584,9.782,2.857,14.784,3.841c10.008,1.974,20.239,2.77,30.486,2.941
		l-1.305,2.283l-1.318-2.051l-1.406-1.995l-1.487-1.94l-1.562-1.885l-1.63-1.833l-1.691-1.783c-1.153-1.167-2.332-2.313-3.538-3.434
		c-1.214-1.114-2.447-2.212-3.698-3.292c-1.257-1.076-2.527-2.14-3.81-3.195l-7.776-6.294c-0.643-0.521-0.743-1.464-0.222-2.108
		c0.112-0.138,0.252-0.256,0.396-0.343c2.137-1.286,4.258-2.595,6.362-3.927l3.131-2.032l3.089-2.088l3.04-2.152l2.984-2.222
		l2.921-2.298l2.849-2.38l1.824,2.376c-1.783,1.223-3.481,2.571-4.999,4.071c-1.522,1.49-2.871,3.148-3.808,4.93
		c-0.925,1.774-1.383,3.708-0.839,5.346c0.496,1.653,1.954,3.026,3.695,4.038c1.754,0.982,3.904,1.766,5.956,2.597
		c2.075,0.814,4.18,1.608,6.282,2.473c2.101,0.865,4.2,1.805,6.237,2.909c2.046,1.109,3.985,2.354,5.856,3.842
		c1.728,1.416,3.644,2.981,4.967,5.263c0.634,1.145,1.155,2.632,0.864,4.22c-0.14,0.774-0.455,1.5-0.86,2.115
		c-0.415,0.601-0.894,1.111-1.398,1.546c-2.048,1.684-4.297,2.522-6.513,3.255c-2.228,0.703-4.472,1.211-6.719,1.622
		c-4.496,0.819-9.007,1.285-13.519,1.603c-2.256,0.158-4.513,0.27-6.771,0.346c-2.264,0.072-4.505,0.12-6.807,0.084l-0.01,0
		c-0.825-0.013-1.483-0.692-1.47-1.517c0.008-0.494,0.261-0.932,0.634-1.199l3.164-2.225l3.223-2.145l3.287-2.055l3.354-1.952
		c1.13-0.63,2.282-1.224,3.423-1.838c1.155-0.588,2.329-1.139,3.493-1.71l3.563-1.57l3.63-1.417l3.695-1.249l3.752-1.073
		c1.267-0.296,2.529-0.616,3.801-0.89c1.28-0.233,2.556-0.497,3.84-0.704c1.29-0.17,2.577-0.373,3.87-0.515
		c1.296-0.108,2.591-0.245,3.889-0.328l3.898-0.145l3.898,0.032l-1.276,2.36c-1.555-2.246-2.714-4.903-2.906-7.779
		c-0.208-2.846,0.625-5.902,2.615-8.131c1.938-2.275,4.924-3.504,7.794-3.56c1.441-0.044,2.86,0.168,4.202,0.55
		c0.655,0.171,1.377,0.452,1.995,0.703l0.865,0.39c0.25,0.121,0.379,0.201,0.573,0.307c0.179,0.101,0.362,0.241,0.539,0.365
		c0.701,0.5,1.484,1.551,1.489,2.729c0.024,1.16-0.45,1.992-0.89,2.659c-0.937,1.312-2.054,2.166-3.219,2.939
		c-1.191,0.748-2.383,1.38-3.907,1.776c-0.226,0.051-0.469,0.099-0.597,0.113l-0.117,0.017l-0.188,0.016l-0.261,0.017
		c-0.349,0.018-0.696,0.052-1.046,0.054c-0.702-0.002-1.403-0.03-2.102-0.124c-2.805-0.356-5.418-1.549-7.62-3.049
		c-2.217-1.492-4.17-3.248-6.041-4.931c-1.866-1.707-3.878-3.375-5.5-5.74c-0.778-1.179-1.5-2.661-1.465-4.394
		c0.015-0.85,0.23-1.696,0.574-2.432c0.352-0.747,0.773-1.355,1.317-1.972c1.889-2.021,4.157-3.52,6.436-4.791
		c2.287-1.268,4.634-2.317,6.883-3.395c1.067-0.515,2.39-1.203,3.822-1.524c1.424-0.341,2.962-0.369,4.403-0.071
		c1.446,0.292,2.777,0.875,3.969,1.573c1.202,0.706,2.257,1.507,3.293,2.377c0.994,0.858,1.848,1.645,2.726,2.099
		c0.416,0.235,0.839,0.304,0.879,0.283c0.022-0.003-0.062,0.026-0.045,0.022c0.006-0.012,0.072-0.083,0.114-0.25
		c0.202-0.681,0.088-1.876-0.209-2.913c-0.297-1.068-0.761-2.116-1.35-3.048l-0.017-0.027c-0.436-0.689-0.231-1.601,0.458-2.037
		c0.035-0.022,0.073-0.044,0.109-0.063c0.383-0.199,0.777-0.378,1.191-0.521c0.415-0.138,0.842-0.243,1.276-0.313
		c0.867-0.134,1.748-0.108,2.575,0.039c1.664,0.298,3.112,1.01,4.399,1.83l-2.162,0.611c0.51-1.067,0.805-2.43,1.171-3.867
		c0.187-0.723,0.391-1.474,0.692-2.249c0.085-0.199,0.153-0.38,0.255-0.593c0.1-0.202,0.224-0.463,0.306-0.593l0.136-0.235
		l0.174-0.28l0.296-0.466c0.424-0.635,0.753-1.231,1.468-2.005c0.207-0.198,0.452-0.44,0.924-0.647
		c0.474-0.222,1.161-0.204,1.527-0.074c0.738,0.252,0.982,0.477,1.313,0.656c0.593,0.362,1.138,0.65,1.728,0.895l1.033,0.404
		c0.431,0.186,0.858,0.429,1.251,0.728c0.395,0.297,0.746,0.659,1.032,1.019c0.277,0.345,0.534,0.748,0.602,0.817
		c0.004,0.006,0-0.007-0.098-0.078c-0.078-0.052-0.28-0.149-0.458-0.153c-0.369-0.01-0.4,0.078-0.367,0.045
		c0.103-0.061,0.352-0.264,0.574-0.477c0.962-0.918,1.832-1.956,2.632-3.077c0.804-1.122,1.544-2.321,2.311-3.561l2.294-3.696
		c0.786-1.25,1.614-2.499,2.568-3.704c0.972-1.193,1.999-2.396,3.582-3.332c0.783-0.448,1.846-0.835,3.032-0.664
		c1.19,0.172,2.129,0.887,2.731,1.581c0.311,0.354,0.565,0.718,0.792,1.083c0.111,0.179,0.22,0.369,0.325,0.568
		c0.115,0.213,0.158,0.309,0.268,0.532c0.315,0.687,0.625,1.376,0.902,2.072c2.236,5.558,3.289,11.277,6.218,15.916l0.142,0.231
		l0.071,0.116l0.036,0.058c-0.034-0.055,0.001-0.004-0.002-0.01c0.038,0.056,0.092,0.118,0.158,0.184
		c0.142,0.129,0.328,0.271,0.564,0.399c0.468,0.26,1.07,0.472,1.695,0.646c1.264,0.347,2.653,0.555,4.053,0.729
		c2.814,0.346,5.708,0.513,8.664,0.917c1.483,0.217,2.979,0.453,4.562,1.041c0.783,0.321,1.646,0.699,2.426,1.599
		c0.38,0.451,0.684,1.078,0.77,1.713c0.09,0.63,0.009,1.239-0.148,1.722c-0.309,0.997-0.803,1.702-1.294,2.365
		c-0.499,0.656-1.032,1.23-1.579,1.772c-0.543,0.547-1.107,1.048-1.688,1.558c-0.523,0.446-1.161,0.984-1.827,1.432
		c-2.656,1.78-5.569,2.779-8.488,3.502c-2.928,0.71-5.903,1.085-8.886,1.21c-2.983,0.125-5.981-0.009-8.963-0.488
		c-2.97-0.503-5.975-1.279-8.742-3.018l-0.01-0.006c-0.686-0.431-0.893-1.337-0.462-2.023c0.031-0.049,0.069-0.101,0.104-0.145
		l2.018-2.482c0.688-0.815,1.42-1.594,2.129-2.392c0.714-0.794,1.495-1.526,2.241-2.291c0.748-0.763,1.568-1.452,2.349-2.18
		c0.786-0.725,1.636-1.374,2.451-2.063c0.824-0.68,1.696-1.294,2.543-1.944c0.858-0.632,1.748-1.217,2.621-1.827l2.686-1.717
		l2.737-1.617l2.773-1.534c1.861-0.993,3.731-1.956,5.608-2.893l11.231-5.543l-0.48,2.298l-1.628-1.838l-1.736-1.756l-1.826-1.691
		l-1.894-1.651l-3.885-3.31l-1.93-1.724l-1.883-1.803c-0.586-0.561-0.606-1.49-0.045-2.075l0.03-0.03l0.01-0.01
		c0.929-0.909,1.778-1.611,2.639-2.386c0.852-0.759,1.686-1.52,2.472-2.302c0.779-0.78,1.531-1.59,2.099-2.401
		c0.28-0.398,0.503-0.813,0.591-1.099c0.014-0.062,0.036-0.129,0.033-0.158c-0.002-0.007,0.007-0.048,0.006-0.026
		c-0.004,0.04,0.006,0.082,0.027,0.118c0.006-0.007-0.031-0.122-0.044-0.177l-0.014-0.052c-0.011-0.036,0.084,0.258,0.042,0.13
		l-0.004-0.008l-0.007-0.015l-0.029-0.062c-0.039-0.081-0.068-0.174-0.116-0.239c-0.32-0.569-0.833-0.881-1.779-1.056
		c-0.917-0.166-2.028-0.154-3.197-0.164c-1.175-0.02-2.448-0.02-3.849-0.423c-0.703-0.211-1.409-0.535-2.075-1.095
		c-0.171-0.148-0.38-0.342-0.444-0.424l-0.145-0.16l-0.092-0.105l-0.034-0.044l-0.069-0.088l-0.548-0.701
		c-0.731-0.934-1.43-1.893-2.092-2.872c-0.673-0.974-1.31-1.97-1.917-2.982c-1.222-2.02-2.336-4.1-3.353-6.222
		c-2.033-4.245-3.689-8.654-5.012-13.155l-0.002-0.005c-0.233-0.793,0.221-1.624,1.013-1.857c0.175-0.051,0.357-0.068,0.528-0.057
		c2.058,0.147,4.356,0.684,6.174,2.257c0.893,0.773,1.577,1.755,2.061,2.762c0.49,1.012,0.774,2.05,0.984,3.064
		c0.799,4.041,0.397,7.924,1.378,11.196c0.971,3.301,3.323,6.095,6.112,8.442c2.788,2.352,6.028,4.418,9.148,6.58
		c6.221,4.225,12.867,7.806,19.947,10.187c3.534,1.2,7.167,2.095,10.852,2.714l2.773,0.411l2.789,0.308
		c1.851,0.158,3.695,0.288,5.621,0.339c3.735,0.13,7.504,0.129,11.057-0.529c3.552-0.632,6.899-2.102,9.744-4.221
		c2.941-2.169,5.501-4.888,5.277-8.085c-0.067-1.59-0.713-3.253-1.529-4.86c-0.83-1.614-1.831-3.192-2.877-4.76
		c-2.049-3.103-4.483-5.971-7.003-8.8l-3.823-4.251c-1.277-1.437-2.56-2.905-3.752-4.375c-2.459-3.024-4.602-6.106-7.17-8.814
		c-1.272-1.348-2.624-2.614-4.109-3.613c-1.477-0.994-3.117-1.702-4.749-1.712l0.874-1.448c1.155,2.308,2.837,4.348,5.087,5.321
		c2.251,0.975,4.906,0.77,7.382,0.001c2.493-0.777,4.87-2.04,7.138-3.461c2.269-1.432,4.437-3.049,6.547-4.742
		c4.213-3.402,8.186-7.124,12.12-10.891l5.92-5.655c1.996-1.851,4.033-3.75,6.312-5.307c4.445-3.168,8.935-6.279,13.514-9.256
		c4.578-2.977,9.238-5.831,14-8.504c2.383-1.333,4.789-2.624,7.219-3.868c2.434-1.237,4.891-2.424,7.371-3.563
		c2.484-1.13,4.992-2.204,7.519-3.232l3.812-1.487L438.641,60.629z"/>
</g>
<g>
	<path d="M242.766,20.712c0,0-0.275,0.069-0.808,0.203c-0.527,0.149-1.34,0.286-2.326,0.668c-2.002,0.64-4.846,1.925-8.102,4.103
		c-1.639,1.071-3.357,2.404-5.179,3.907c-1.804,1.532-3.698,3.257-5.68,5.159c-1.983,1.926-4.093,3.976-6.317,6.136
		c-2.295,2.163-4.865,4.108-7.434,6.349c-5.181,4.392-10.702,9.211-16.429,14.443c-2.816,2.686-5.709,5.445-8.666,8.266
		c-3.051,2.791-6.162,5.514-9.191,8.441c-3.012,2.92-6.013,5.984-8.507,9.372c-1.219,1.683-2.359,3.5-2.858,5.292
		c-0.074,0.224-0.117,0.442-0.144,0.654c-0.049,0.218-0.064,0.425-0.061,0.622c-0.024,0.208,0.005,0.391,0.03,0.572l0.013,0.138
		c0.025,0.121-0.03-0.091-0.012-0.029l0.029,0.1l0.116,0.4l0.116,0.4l0.126,0.237c0.086,0.155,0.123,0.312,0.267,0.485
		c0.213,0.356,0.507,0.663,0.812,0.967c1.315,1.158,3.308,1.811,5.366,2.13c2.074,0.327,4.254,0.387,6.444,0.307
		c4.389-0.158,8.825-0.82,13.248-1.608c2.2-0.388,4.458-0.85,6.706-1.196c1.137-0.177,2.176-0.396,3.266-0.619
		c1.09-0.234,2.181-0.479,3.273-0.737c4.37-1.028,8.758-2.15,13.239-2.916c2.244-0.37,4.511-0.657,6.809-0.756
		c2.291-0.078,4.668,0.081,6.938,0.595c0.528,0.116,1.06,0.235,1.647,0.419c0.576,0.156,1.14,0.339,1.689,0.56
		c1.104,0.408,2.212,0.958,3.239,1.763c1.018,0.782,1.974,1.977,2.31,3.414c0.35,1.43,0.105,2.829-0.301,3.991
		c-0.412,1.179-0.99,2.203-1.619,3.142c-0.627,0.944-1.304,1.82-2.009,2.642c-1.404,1.658-2.9,3.146-4.392,4.582
		c-1.494,1.434-2.999,2.795-4.445,4.148c-1.437,1.377-2.857,2.738-4.257,4.08c-5.577,5.421-11.13,10.373-16.251,14.854
		c-1.3,1.105-2.573,2.186-3.816,3.243c-1.233,1.071-2.458,2.092-3.695,3.036c-2.512,1.836-4.895,3.577-7.135,5.214
		c-2.285,1.569-4.424,3.037-6.402,4.394c-1.967,1.368-3.867,2.494-5.531,3.578c-3.316,2.19-6.082,3.658-7.914,4.735
		c-1.843,1.058-2.826,1.622-2.826,1.622s0.926-0.654,2.664-1.879c1.731-1.233,4.305-2.98,7.441-5.399
		c1.568-1.209,3.357-2.469,5.202-3.981c1.851-1.499,3.854-3.12,5.993-4.852c4.187-3.58,8.847-7.666,14.059-11.981
		c5.103-4.467,10.543-9.315,16.133-14.747c1.41-1.351,2.839-2.721,4.285-4.107c1.472-1.376,2.965-2.727,4.42-4.124
		c1.452-1.397,2.888-2.829,4.18-4.356c1.277-1.514,2.495-3.161,3.083-4.831c0.596-1.709,0.339-3.018-1.046-4.073
		c-0.668-0.525-1.515-0.971-2.445-1.309c-0.459-0.187-0.929-0.339-1.405-0.467c-0.451-0.148-0.983-0.27-1.523-0.388
		c-1.996-0.448-4.035-0.59-6.16-0.522c-2.118,0.092-4.265,0.361-6.419,0.716c-4.313,0.736-8.643,1.84-13.054,2.879
		c-1.103,0.261-2.215,0.511-3.335,0.751c-1.123,0.232-2.3,0.474-3.398,0.644c-2.226,0.343-4.406,0.79-6.667,1.189
		c-4.49,0.798-9.039,1.485-13.673,1.653c-2.316,0.083-4.659,0.029-7.023-0.343c-1.181-0.195-2.37-0.452-3.543-0.907
		c-1.166-0.449-2.341-1.038-3.357-1.958c-0.493-0.474-0.963-0.982-1.331-1.581c-0.205-0.266-0.361-0.636-0.521-0.979l-0.224-0.519
		l-0.116-0.4l-0.116-0.4l-0.029-0.1c-0.005-0.004-0.072-0.284-0.052-0.232l-0.037-0.275c-0.053-0.369-0.089-0.736-0.062-1.083
		c0.001-0.358,0.032-0.702,0.099-1.027c0.047-0.337,0.116-0.66,0.211-0.963c0.712-2.477,2.01-4.423,3.328-6.272
		c2.696-3.655,5.774-6.778,8.85-9.766c3.079-2.975,6.254-5.755,9.234-8.481c2.958-2.821,5.852-5.582,8.669-8.269
		c5.769-5.271,11.34-10.131,16.524-14.526c2.603-2.165,5.039-4.384,7.401-6.303c2.386-1.974,4.649-3.847,6.776-5.606
		c2.15-1.758,4.214-3.358,6.173-4.769c1.982-1.385,3.841-2.604,5.606-3.566c3.499-1.986,6.531-2.963,8.62-3.428
		c1.033-0.288,1.847-0.344,2.388-0.442C242.486,20.755,242.766,20.712,242.766,20.712z"/>
</g>
<g>
	<path d="M211.808,321.212c-1.191-0.494-2.32-1.243-3.316-2.122c-0.992-0.892-1.865-1.916-2.656-2.991
		c-1.575-2.163-2.792-4.534-3.946-6.886c-0.56-1.185-0.876-2.452-1.354-3.648c-0.442-1.209-0.882-2.41-1.343-3.589
		c-0.461-1.178-0.944-2.336-1.479-3.444c-0.266-0.555-0.552-1.09-0.847-1.614l-0.468-0.766l-0.521-0.812
		c-2.779-4.291-5.738-8.605-8.134-13.319c-1.195-2.357-2.259-4.817-3.003-7.424c-0.74-2.6-1.156-5.371-0.929-8.173
		c0.064-0.823,0.783-1.438,1.606-1.374l0.018,0.001c1.459,0.131,2.936,0.382,4.393,0.865c1.449,0.494,2.89,1.238,4.103,2.342
		c0.602,0.556,1.129,1.199,1.577,1.893c0.426,0.706,0.766,1.457,1.009,2.228c0.463,1.547,0.574,3.131,0.454,4.639
		c-0.231,3.032-1.212,5.813-2.41,8.42c-1.218,2.605-2.721,5.036-4.407,7.322c-1.69,2.283-3.568,4.422-5.636,6.382
		c-1.035,0.979-2.119,1.912-3.26,2.784c-0.567,0.439-1.128,0.896-1.742,1.28c-0.623,0.37-1.282,0.685-1.94,0.996
		c-1.326,0.604-2.711,1.105-4.148,1.427c-0.725,0.145-1.452,0.272-2.198,0.29c-0.368,0.026-0.744,0.008-1.112-0.003l-0.555-0.048
		c-0.191-0.019-0.278-0.027-0.44-0.025c-0.278-0.003-0.567,0.065-0.654,0.122c-0.039,0.027-0.044,0.002-0.06,0.053
		c-0.01,0.051-0.003,0.16,0.052,0.282c0.209,0.502,0.672,1.041,1.134,1.516c0.946,0.968,2.026,1.837,3.114,2.684
		c-1.207-0.672-2.406-1.361-3.536-2.205c-0.558-0.438-1.126-0.859-1.564-1.58c-0.106-0.18-0.202-0.411-0.219-0.703
		c-0.026-0.293,0.126-0.659,0.347-0.857c0.444-0.396,0.871-0.464,1.267-0.541c0.18-0.035,0.439-0.041,0.591-0.057l0.477-0.052
		c0.317-0.054,0.632-0.098,0.943-0.183c0.624-0.14,1.232-0.372,1.83-0.599c1.192-0.499,2.325-1.148,3.401-1.887
		c0.539-0.37,1.054-0.775,1.576-1.169c0.528-0.385,1.09-0.725,1.615-1.125c1.047-0.8,2.053-1.665,3.018-2.578
		c1.93-1.828,3.699-3.842,5.285-5.985c1.582-2.144,2.986-4.422,4.101-6.808c1.1-2.378,1.956-4.893,2.137-7.37
		c0.101-1.234-0.004-2.442-0.328-3.536c-0.172-0.543-0.407-1.05-0.688-1.526c-0.304-0.461-0.651-0.891-1.061-1.27
		c-1.662-1.52-4.172-2.213-6.723-2.428l1.624-1.373c-0.191,2.347,0.155,4.759,0.824,7.108c0.671,2.353,1.658,4.65,2.793,6.887
		c2.278,4.487,5.16,8.702,7.984,13.056c0.347,0.534,0.699,1.085,1.062,1.699c0.338,0.598,0.659,1.201,0.95,1.808
		c0.586,1.213,1.094,2.437,1.572,3.658c0.478,1.221,0.924,2.441,1.367,3.652c0.406,1.225,0.972,2.38,1.337,3.6
		c0.7,2.452,1.482,4.856,2.543,7.13C208.302,317.519,209.688,319.688,211.808,321.212z"/>
</g>
<g>
	<path d="M383.016,156.337c1.561-2.861,3.482-5.583,4.482-8.648c0.488-1.506,0.685-3.169,0.035-4.519
		c-0.608-1.356-2.017-2.246-3.412-2.77l-1.162-0.391c-0.375-0.086-0.736-0.135-1.101-0.21c-0.363-0.071-0.75-0.038-1.122-0.066
		c-0.376-0.02-0.734,0.083-1.099,0.112c-1.426,0.259-2.657,1.248-2.862,2.491l-0.057,0.466c0.013,0.158,0.047,0.317,0.064,0.475
		l0.027,0.237l0.093,0.231l0.175,0.463c0.179,0.291,0.363,0.584,0.568,0.862c0.256,0.254,0.487,0.524,0.751,0.769l0.883,0.668
		c0.313,0.203,0.657,0.373,0.982,0.562c0.162,0.086,0.333,0.2,0.487,0.264l0.557,0.255c0.37,0.164,0.713,0.297,1.078,0.444
		c2.965,1.125,6.105,1.914,9.256,2.536c3.158,0.607,6.352,1.042,9.543,1.243c3.187,0.207,6.379,0.295,9.486-0.02
		c1.549-0.16,3.075-0.444,4.494-0.91c1.415-0.463,2.723-1.124,3.705-2.015l2.045,2.195l-16.888,15.152
		c-2.823,2.516-5.612,5.072-8.462,7.554l-8.603,7.381l-17.212,14.752l-17.263,14.667c-5.784,4.859-11.436,9.853-17.132,14.802
		l-17.086,14.881c-2.819,2.498-5.792,4.895-8.689,7.333l-8.784,7.166c-5.86,4.761-11.688,9.534-17.308,14.521
		c-5.681,4.923-10.938,10.252-16.325,15.578l-16.08,15.96l-15.796,16.199l-7.909,8.12c-2.593,2.725-5.334,5.389-8.074,8.035
		c-5.519,5.23-11.345,10.154-17.462,14.693c-1.527,1.138-3.052,2.279-4.643,3.328c-1.586,1.054-3.121,2.188-4.749,3.177
		l-4.844,3.024l-4.858,2.923c-6.521,3.882-13.213,7.533-20.279,10.548c-3.554,1.458-7.262,2.632-11.165,3.227
		c-1.95,0.281-3.968,0.413-6.022,0.087c-2.029-0.311-4.173-1.23-5.603-2.932l-0.059-0.071c-0.321-0.382-0.293-0.942,0.043-1.294
		l3.675-3.825c1.311-1.173,2.644-2.319,3.962-3.475c1.37-1.087,2.759-2.146,4.135-3.218l4.207-3.083
		c1.389-1.021,2.775-2.076,4.129-3.141c1.368-1.067,2.746-2.128,4.137-3.173l2.118-1.527c0.715-0.496,1.453-0.962,2.177-1.444
		c0.738-0.461,1.506-0.876,2.255-1.315c0.773-0.398,1.571-0.75,2.351-1.125c-0.761,0.42-1.533,0.814-2.279,1.252
		c-0.722,0.48-1.459,0.933-2.165,1.432c-0.693,0.52-1.397,1.021-2.079,1.553l-2.017,1.634c-1.325,1.116-2.635,2.249-3.944,3.391
		c-1.322,1.145-2.646,2.257-4.004,3.357l-4.042,3.268c-1.31,1.125-2.631,2.235-3.928,3.367c-1.235,1.193-2.481,2.372-3.701,3.57
		l-3.362,3.848l-0.016-1.365c1.091,1.159,2.649,1.771,4.338,1.958c1.693,0.19,3.485,0.002,5.25-0.342
		c3.549-0.689,7.009-2.056,10.438-3.446c6.885-2.798,13.451-6.477,19.914-10.294l4.848-2.917l4.766-2.975
		c1.601-0.971,3.107-2.086,4.665-3.121c1.563-1.03,3.062-2.151,4.562-3.27c6.011-4.46,11.742-9.302,17.187-14.462
		c2.692-2.601,5.37-5.2,7.984-7.946l7.9-8.111l15.84-16.244l16.081-15.961c5.351-5.291,10.713-10.725,16.452-15.697
		c5.678-5.039,11.54-9.839,17.402-14.601l8.772-7.156c2.881-2.425,5.791-4.767,8.625-7.279l17.084-14.88
		c5.706-4.958,11.374-9.965,17.156-14.823l17.269-14.673l17.194-14.736l8.592-7.372c2.845-2.477,5.624-5.025,8.439-7.534
		l16.841-15.109l0.035-0.031c0.617-0.553,1.565-0.502,2.118,0.115c0.551,0.614,0.502,1.557-0.107,2.111
		c-1.446,1.314-3.14,2.119-4.818,2.674c-1.689,0.551-3.395,0.858-5.09,1.065c-1.697,0.197-3.389,0.283-5.072,0.274
		c-1.684,0.007-3.356-0.128-5.016-0.301c-3.32-0.37-6.591-0.977-9.819-1.759c-3.224-0.799-6.408-1.759-9.498-3.102
		c-0.385-0.176-0.795-0.362-1.163-0.547l-0.544-0.281c-0.217-0.106-0.383-0.229-0.576-0.343c-0.371-0.238-0.751-0.454-1.11-0.713
		l-1.031-0.863c-0.32-0.322-0.611-0.686-0.911-1.029c-0.262-0.385-0.5-0.801-0.716-1.219l-0.231-0.693l-0.108-0.347l-0.036-0.373
		c-0.019-0.249-0.048-0.497-0.049-0.744l0.121-0.747c0.246-0.963,0.806-1.877,1.603-2.416c0.358-0.337,0.815-0.479,1.227-0.703
		c0.436-0.143,0.883-0.276,1.327-0.352c0.901-0.121,1.784-0.086,2.656,0.067c0.432,0.104,0.877,0.199,1.29,0.32l1.142,0.447
		c0.832,0.358,1.555,0.773,2.243,1.339c0.674,0.56,1.253,1.284,1.581,2.121c0.683,1.702,0.308,3.515-0.282,5.045
		C386.807,150.995,384.74,153.567,383.016,156.337z"/>
</g>
<g>
	<path d="M212.917,285.583c0,0,0.204-0.397,0.575-0.736c0.364-0.367,0.898-0.667,1.47-0.816c0.573-0.145,1.185-0.138,1.68,0.011
		c0.488,0.121,0.858,0.374,0.858,0.374s-0.203,0.399-0.574,0.739c-0.364,0.368-0.898,0.666-1.471,0.813
		c-0.574,0.143-1.186,0.134-1.681-0.014C213.286,285.835,212.917,285.583,212.917,285.583z"/>
</g>
<g>
	<path d="M228.417,276.167c0,0,0.064-0.421,0.291-0.822c0.213-0.426,0.592-0.825,1.049-1.088c0.459-0.259,0.995-0.383,1.471-0.346
		c0.461,0.011,0.857,0.174,0.857,0.174s-0.063,0.423-0.289,0.825c-0.212,0.427-0.592,0.825-1.05,1.086
		c-0.46,0.258-0.997,0.38-1.472,0.344C228.811,276.327,228.417,276.167,228.417,276.167z"/>
</g>
</svg>
